<?xml version="1.0" encoding="utf-8"?>
<!-- Generator: Adobe Illustrator 27.0.1, SVG Export Plug-In . SVG Version: 6.00 Build 0)  -->
<svg version="1.1" xmlns="http://www.w3.org/2000/svg" xmlns:xlink="http://www.w3.org/1999/xlink" x="0px" y="0px"
	 viewBox="0 0 3000 3000" style="enable-background:new 0 0 3000 3000;" xml:space="preserve">
<style type="text/css">
	.st0{fill:#0C5CFF;}
	.st1{fill:#282828;}
	.st2{fill:#F2F1EE;}
	.st3{fill:none;}
	.st4{fill:none;stroke:#FF0001;stroke-miterlimit:10;}
	.st5{fill:#FFFFFF;}
	.st6{display:none;}
</style>
<g id="Camada_1">
	<g>
		<g>
			<polygon class="st0" points="2377.5,1271.8 2377.5,1075.4 2053.6,1158 2053.6,1332.7 			"/>
			<polygon class="st5" points="2053.6,1386.4 2053.6,1497.6 2045.1,1497.6 1853.5,1075.4 1437.4,1075.4 1437.4,1445.5 
				1334.8,1510.6 1454.5,1910.6 1678.5,1865.7 1761.3,1848.8 1761.3,1502.4 1769.8,1502.4 1972.4,1924.6 2377.5,1924.6 
				2377.5,1351.5 			"/>
		</g>
		<g>
			<polygon class="st5" points="1082.7,1635.9 1026.4,1635.9 1026.4,1627.4 1247,1488.4 1367.3,1412.7 1367.3,1075.4 645.5,1075.4 
				731.1,1366.6 951.2,1366.6 951.2,1373.9 622.5,1600.7 622.5,1924.6 1108.8,1924.6 			"/>
			<polygon class="st0" points="1313.3,1635.9 1128.9,1635.9 1183.2,1924.6 1402.4,1924.6 1366.6,1808.5 			"/>
		</g>
	</g>
</g>
<g id="Camada_2" class="st6">
</g>
</svg>
